<svg xmlns="http://www.w3.org/2000/svg" xmlns:xlink="http://www.w3.org/1999/xlink" width="200" zoomAndPan="magnify" viewBox="0 0 150 149.999998" height="200" preserveAspectRatio="xMidYMid meet" version="1.0"><defs><clipPath id="id1"><path d="M 8 2 L 147 2 L 147 150 L 8 150 Z M 8 2 " clip-rule="nonzero"/></clipPath><clipPath id="id2"><path d="M 18.964844 -13.164062 L 176.921875 34.539062 L 130.734375 187.46875 L -27.21875 139.765625 Z M 18.964844 -13.164062 " clip-rule="nonzero"/></clipPath><clipPath id="id3"><path d="M 18.964844 -13.164062 L 176.921875 34.539062 L 130.734375 187.46875 L -27.21875 139.765625 Z M 18.964844 -13.164062 " clip-rule="nonzero"/></clipPath></defs><rect x="-15" width="180" fill="#ffffff" y="-15" height="179.999997" fill-opacity="1"/><rect x="-15" width="180" fill="#000000" y="-15" height="179.999997" fill-opacity="1"/><rect x="-15" width="180" fill="#ffffff" y="-15" height="179.999997" fill-opacity="1"/><rect x="-15" width="180" fill="#000000" y="-15" height="179.999997" fill-opacity="1"/><g clip-path="url(#id1)"><g clip-path="url(#id2)"><g clip-path="url(#id3)"><path fill="#e6a645" d="M 93.519531 58.769531 C 94.453125 62.144531 94.246094 65.390625 93.761719 68.691406 C 93.554688 57.214844 86.792969 43.941406 77.273438 37.460938 C 72.191406 34.003906 65.644531 31.214844 56.875 30.941406 C 58.699219 31.316406 60.96875 31.84375 63.085938 33.214844 C 59.015625 32.421875 55.601562 32.085938 53.933594 32.117188 C 42.699219 22.796875 42.699219 22.796875 42.699219 22.796875 C 52.523438 35.472656 52.523438 35.472656 52.523438 35.472656 C 55.304688 35.421875 72.183594 34.554688 82.511719 46.015625 C 80.753906 44.515625 78.722656 43.128906 76.367188 41.902344 C 68.84375 37.964844 60.183594 36.539062 52.242188 38.242188 C 49.003906 34.113281 39.835938 23.578125 25.390625 16.066406 C 26.632812 15.035156 28.132812 13.921875 29.90625 12.832031 L 42.367188 22.066406 L 32.746094 11.214844 C 33.238281 10.945312 33.753906 10.6875 34.285156 10.429688 L 43.039062 18.144531 L 36.898438 9.238281 C 38.703125 8.496094 40.628906 7.808594 42.652344 7.25 C 45.195312 9.824219 51.578125 15.257812 55.882812 21.152344 C 54.898438 17.804688 52.777344 9.914062 53.402344 7.445312 C 53.957031 7.4375 55.410156 7.28125 57.738281 7.410156 L 59.683594 26.027344 L 62.039062 7.894531 C 62.976562 8.058594 63.96875 8.242188 65.058594 8.492188 L 65.554688 18.882812 L 68.261719 9.339844 C 69.167969 9.613281 70.125 9.902344 71.125 10.261719 C 71.84375 11.609375 73.929688 19.410156 73.191406 22.0625 C 74.902344 19.921875 82.042969 12.3125 82.042969 12.3125 C 82.480469 12.761719 83.148438 13.359375 83.988281 14.109375 L 75.121094 28.230469 L 86.179688 16.078125 C 86.867188 16.679688 87.609375 17.359375 88.414062 18.097656 L 81.570312 29.050781 L 90.289062 19.875 C 91.683594 21.207031 93.222656 22.722656 94.878906 24.429688 C 87.5 36.824219 87.5 36.824219 87.5 36.824219 C 100.601562 30.082031 100.601562 30.082031 100.601562 30.082031 C 100.601562 30.082031 101.316406 30.992188 102.339844 32.566406 L 91.726562 40.042969 L 103.804688 34.914062 C 104.746094 36.503906 105.769531 38.417969 106.707031 40.542969 L 98.949219 46.679688 L 107.742188 43.074219 C 108.15625 44.191406 108.523438 45.332031 108.824219 46.492188 L 99.421875 53.480469 L 110.222656 54.621094 L 110.203125 54.875 L 101.15625 56.5 L 110.136719 56.933594 L 110.136719 57.90625 L 102.695312 59.78125 L 110.113281 59.878906 C 110.070312 61.074219 109.949219 62.585938 109.714844 64.671875 C 101.574219 68.792969 101.574219 68.792969 101.574219 68.792969 C 107.976562 72.390625 107.976562 72.390625 107.976562 72.390625 C 107.792969 72.671875 107.570312 73.019531 107.335938 73.464844 L 97.96875 71.050781 L 106.429688 75.289062 C 104.574219 79.464844 102.382812 87.183594 104.007812 97.5625 C 91.761719 86.039062 101.125 71.589844 93.601562 58.757812 Z M 8.992188 149.980469 C 12.800781 146.792969 32.246094 127.878906 60.300781 128.722656 C 74.316406 129.152344 83.902344 134.1875 95.878906 138.417969 C 111.949219 144.082031 131.933594 147.386719 146.332031 135.882812 C 142.460938 132.21875 138.601562 126.15625 134.320312 123.398438 C 132.910156 122.496094 130.332031 122.789062 128.511719 122.734375 C 128.695312 121.800781 128.746094 121.179688 128.558594 120.6875 C 127.417969 118.640625 121.164062 112.195312 116.035156 109.160156 C 115.058594 108.863281 111.554688 108.101562 106.832031 107.90625 C 106.339844 106.925781 106.039062 105.367188 105.214844 104.5625 C 104.3125 103.695312 99.589844 99.238281 93.867188 98.242188 C 92.472656 99.644531 88.898438 106.195312 60.484375 110.253906 C 40.804688 113.066406 14.535156 130.195312 8.980469 149.957031 Z M 28 132.441406 C 37.410156 128.507812 56.5625 118.203125 79.511719 122.480469 C 76.960938 122.816406 71.785156 123.078125 69.660156 123.960938 C 75.132812 124.941406 84.1875 126.761719 89.304688 129.835938 C 87.730469 129.558594 83.957031 128.894531 82.6875 128.90625 C 85.496094 130.347656 95.464844 135.082031 102.996094 136.960938 C 93.300781 131.773438 93.300781 131.773438 93.300781 131.773438 C 98.210938 133.316406 121.828125 142.847656 135.558594 136.890625 C 137.347656 134.496094 136.898438 133.765625 137.0625 132.765625 C 136.066406 131.671875 130.394531 127.425781 126.503906 126.050781 C 124.339844 127.0625 120.472656 133.066406 84.816406 123.824219 C 88.152344 123.503906 102.328125 124.851562 106.703125 123.121094 C 106.527344 123.960938 106.21875 124.203125 105.480469 124.617188 C 106.804688 124.816406 117.925781 127.503906 121.707031 120.480469 C 118.242188 117.035156 115.730469 114.355469 115.011719 113.664062 C 112.855469 113.152344 105.03125 111.582031 103.875 111.6875 C 102.863281 112.671875 100.667969 114.445312 98.003906 115.484375 C 93.84375 117.097656 73.335938 117.421875 68.285156 116.550781 C 72.238281 116.21875 87.980469 114.992188 91.984375 111.148438 C 92.179688 112 91.558594 113.019531 91.238281 113.417969 C 92.53125 112.738281 98.210938 109.699219 100.429688 105.359375 C 98.425781 103.5625 95.914062 102.191406 95.007812 101.660156 C 93.828125 102.691406 88.09375 107.019531 85.355469 107.976562 C 87.480469 107.550781 92.050781 106.671875 93.882812 105.835938 C 90.742188 107.9375 84.324219 111.132812 75.761719 112.53125 C 67.179688 113.921875 56.496094 114.894531 52.335938 117.222656 C 55.921875 116.722656 63.304688 116.296875 66.152344 116.480469 C 62.683594 117.238281 44.109375 120.128906 28 132.441406 Z M 32.546875 44.320312 C 32.546875 44.320312 40.230469 61.003906 53.597656 72.015625 C 54.5625 75.832031 54.5625 75.832031 54.5625 75.832031 C 56.441406 72.875 56.441406 72.875 56.441406 72.875 C 59.136719 74.023438 76.199219 81.636719 89.445312 79.453125 C 89.847656 83.222656 88.1875 88.265625 90.28125 90.683594 C 91.128906 91.671875 92.441406 92.761719 94.1875 94.042969 C 90.035156 101.839844 72.964844 105.363281 64.707031 105.761719 C 65.949219 103.800781 69.488281 98.886719 69.230469 93.140625 C 69.132812 90.972656 68.105469 84.105469 65.445312 83.953125 C 62.417969 83.773438 59.925781 92.671875 64.171875 95.953125 C 52.152344 104.152344 52.152344 104.152344 52.152344 104.152344 C 51.03125 103.675781 49.730469 102.429688 49.253906 101.453125 C 47.6875 106.765625 47.652344 106.753906 47.652344 106.753906 C 40.234375 111.566406 26.019531 120.429688 16.257812 130.378906 C 17.417969 121.695312 24.566406 95.402344 29.296875 88.054688 C 38.285156 84.648438 38.285156 84.648438 38.285156 84.648438 C 38.285156 84.648438 38.347656 90.789062 38.921875 92.882812 C 39.402344 89.78125 40.824219 85.472656 41.207031 84.203125 C 51.738281 80.269531 51.738281 80.269531 51.738281 80.269531 C 42.554688 78.429688 42.554688 78.429688 42.554688 78.429688 C 42.835938 72.195312 42.835938 72.195312 42.835938 72.195312 C 41.273438 77.367188 41.273438 77.367188 41.273438 77.367188 C 40.671875 74.988281 40.671875 74.988281 40.671875 74.988281 C 39.855469 78.800781 39.855469 78.800781 39.855469 78.800781 C 32.574219 76.800781 32.574219 76.800781 32.574219 76.800781 C 29.421875 85.28125 29.421875 85.28125 29.421875 85.28125 C 28.015625 86.855469 22.15625 92.457031 19.3125 95.917969 C 19.179688 89.753906 16.796875 70.035156 32.507812 44.308594 Z M 35.816406 88.378906 L 32.726562 90.042969 C 32.726562 90.042969 27.261719 107.671875 25.554688 117.515625 C 46.8125 101.746094 46.8125 101.746094 46.8125 101.746094 C 46.949219 99.332031 47.675781 93.664062 48.171875 91.753906 C 48.378906 93.222656 48.363281 96.804688 49.347656 98.589844 C 49.433594 97.523438 49.640625 96.121094 49.742188 95.777344 C 49.890625 96.59375 50.46875 98.410156 51.042969 99.257812 C 59.761719 94.007812 59.761719 94.007812 59.761719 94.007812 C 51.210938 96.675781 51.210938 96.675781 51.210938 96.675781 C 59.425781 92.300781 59.425781 92.300781 59.425781 92.300781 C 58.902344 87.566406 63.121094 77.707031 68.414062 82.554688 C 69.578125 83.617188 70.648438 85.367188 71.167969 88.160156 C 82.328125 84.773438 82.328125 84.773438 82.328125 84.773438 L 71.390625 89.773438 C 71.449219 90.304688 71.472656 90.886719 71.488281 91.484375 L 83.726562 87.792969 L 71.386719 94.367188 C 71.265625 95.953125 71.019531 97.742188 70.625 99.703125 C 75 98.371094 77.304688 98.195312 85.042969 94.09375 C 83.511719 96.085938 78.820312 99.980469 72.480469 102.128906 C 78.476562 100.988281 86.273438 98.585938 91.003906 94.566406 C 90.257812 93.964844 89.277344 93.035156 88.433594 91.964844 C 86.996094 96.386719 86.648438 87.863281 86.652344 86.675781 C 86.644531 84.867188 86.121094 83.324219 82.527344 82.933594 C 78.566406 82.507812 68.148438 81.800781 57.019531 76.398438 C 55.285156 79.0625 55.285156 79.0625 55.285156 79.0625 C 60.355469 80.457031 60.355469 80.457031 60.355469 80.457031 C 43.796875 85.894531 43.796875 85.894531 43.796875 85.894531 C 38.378906 102.070312 38.378906 102.070312 38.378906 102.070312 C 35.789062 88.332031 35.789062 88.332031 35.789062 88.332031 Z M 30.996094 56.90625 C 30.996094 56.90625 23.300781 71.207031 24.167969 84.820312 C 28.117188 80.964844 28.117188 80.964844 28.117188 80.964844 C 29.898438 71.335938 29.898438 71.335938 29.898438 71.335938 C 31.617188 72.253906 34.195312 74.636719 38.601562 75.234375 C 39.585938 73.46875 40.699219 67.625 41.011719 66.390625 C 41.570312 67.433594 41.75 68.535156 41.777344 69.8125 C 43.335938 66.164062 43.335938 66.164062 43.335938 66.164062 C 41.980469 65.160156 37.941406 59.222656 36.164062 56.347656 C 35.160156 57.90625 29.632812 65.214844 28.179688 70.480469 C 28.785156 65.414062 29.195312 62.089844 31.015625 56.914062 Z M 44.523438 67.53125 C 44.523438 67.53125 44.320312 72.125 44.832031 75.726562 C 52.167969 78.003906 52.167969 78.003906 52.167969 78.003906 C 50.898438 73.636719 50.867188 73.410156 50.867188 73.410156 C 48.914062 71.769531 47.5 70.429688 44.523438 67.53125 Z M 74.214844 95.738281 L 79.613281 92.316406 L 85.507812 90.46875 C 74.214844 95.738281 74.214844 95.738281 74.214844 95.738281 Z M 45.101562 47.101562 C 45.101562 47.101562 48.941406 57.214844 55.359375 60.957031 C 51.121094 56.148438 48.402344 52.0625 45.101562 47.101562 Z M 92.308594 80.238281 C 92.3125 92.980469 100.277344 101.289062 111.855469 106.589844 C 109.984375 103.09375 105.878906 96.34375 106.597656 85.128906 C 106.863281 86.675781 108.648438 93.058594 110.632812 95.261719 C 109.148438 90.296875 106.152344 78.496094 113.253906 71.863281 C 111.320312 70.605469 108.027344 68.957031 108.027344 68.957031 C 113.015625 68.007812 113.015625 68.007812 113.015625 68.007812 C 113.210938 64.9375 113.757812 55.867188 113.191406 51.855469 C 109.300781 50.9375 109.332031 51.023438 109.332031 51.023438 C 114.277344 48.0625 114.277344 48.0625 114.277344 48.0625 C 113 41.890625 108.023438 30.699219 102.648438 24.816406 C 95.460938 29.699219 95.460938 29.699219 95.460938 29.699219 C 100 23.898438 100 23.898438 100 23.898438 C 97.132812 20.238281 88.6875 11.308594 81.292969 6.417969 C 76.675781 9.402344 76.675781 9.402344 76.675781 9.402344 C 76.222656 5.679688 76.222656 5.679688 76.222656 5.679688 C 72.398438 4.269531 60.195312 1.238281 48.421875 2.476562 C 48.507812 8.34375 48.632812 8.382812 48.632812 8.382812 C 42.710938 3.007812 42.710938 3.007812 42.710938 3.007812 C 37.792969 3.921875 26.019531 9.539062 9.484375 18.234375 C 15.175781 18.230469 24.53125 18.917969 31.035156 23.675781 C 26.628906 23.808594 26.628906 23.808594 26.628906 23.808594 C 34.289062 27.886719 39.546875 30.167969 48.488281 39.347656 C 44.304688 40.835938 40.410156 43.265625 37.097656 46.785156 C 42.699219 65.910156 65.421875 78.003906 89.371094 77.410156 C 90.167969 77.394531 90.875 77.667969 91.453125 78.238281 C 92.03125 78.808594 92.320312 79.488281 92.3125 80.300781 Z M 42.90625 47.628906 C 42.90625 47.628906 50.347656 67.546875 68.234375 68.628906 C 63.113281 66.945312 59.925781 66.121094 56.589844 61.984375 C 59.214844 63.171875 76.886719 72.234375 85.683594 63.320312 C 72.664062 67.964844 54.953125 63.667969 49.171875 47.753906 C 53.65625 57.886719 67.015625 67.113281 82.417969 62.292969 C 89.613281 60.050781 78.625 49.992188 75.800781 48.089844 C 65.515625 41.199219 52.378906 40.800781 42.914062 47.609375 Z M 42.90625 47.628906 " fill-opacity="1" fill-rule="evenodd"/></g></g></g></svg>