<svg xmlns="http://www.w3.org/2000/svg" xmlns:xlink="http://www.w3.org/1999/xlink" width="200" zoomAndPan="magnify" viewBox="0 0 150 149.999998" height="200" preserveAspectRatio="xMidYMid meet" version="1.0"><defs><g/><clipPath id="id1"><path d="M 27 6 L 128 6 L 128 114 L 27 114 Z M 27 6 " clip-rule="nonzero"/></clipPath><clipPath id="id2"><path d="M 35.007812 -4.972656 L 149.882812 29.71875 L 116.273438 141.003906 L 1.398438 106.3125 Z M 35.007812 -4.972656 " clip-rule="nonzero"/></clipPath><clipPath id="id3"><path d="M 35.007812 -4.972656 L 149.882812 29.71875 L 116.273438 141.003906 L 1.398438 106.3125 Z M 35.007812 -4.972656 " clip-rule="nonzero"/></clipPath><clipPath id="id4"><path d="M 35.007812 -4.972656 L 149.882812 29.71875 L 116.273438 141.003906 L 1.398438 106.3125 Z M 35.007812 -4.972656 " clip-rule="nonzero"/></clipPath></defs><g clip-path="url(#id1)"><g clip-path="url(#id2)"><g clip-path="url(#id3)"><g clip-path="url(#id4)"><path fill="#000000" d="M 89.21875 47.363281 C 89.902344 49.816406 89.746094 52.179688 89.394531 54.582031 C 89.246094 46.230469 84.332031 36.574219 77.40625 31.855469 C 73.710938 29.34375 68.949219 27.3125 62.574219 27.117188 C 63.898438 27.386719 65.550781 27.773438 67.089844 28.769531 C 64.128906 28.195312 61.644531 27.949219 60.433594 27.972656 C 52.261719 21.191406 52.261719 21.191406 52.261719 21.191406 C 59.40625 30.414062 59.40625 30.414062 59.40625 30.414062 C 61.429688 30.378906 73.707031 29.746094 81.214844 38.082031 C 79.9375 36.988281 78.460938 35.980469 76.746094 35.089844 C 71.273438 32.226562 64.976562 31.1875 59.203125 32.429688 C 56.847656 29.425781 50.179688 21.761719 39.675781 16.296875 C 40.578125 15.542969 41.667969 14.734375 42.957031 13.941406 L 52.023438 20.660156 L 45.023438 12.761719 C 45.382812 12.570312 45.757812 12.378906 46.144531 12.195312 L 52.511719 17.808594 L 48.042969 11.324219 C 49.355469 10.785156 50.757812 10.285156 52.230469 9.878906 C 54.082031 11.75 58.71875 15.703125 61.851562 19.992188 C 61.136719 17.558594 59.59375 11.816406 60.046875 10.019531 C 60.453125 10.011719 61.507812 9.898438 63.203125 9.992188 L 64.617188 23.539062 L 66.332031 10.347656 C 67.011719 10.464844 67.734375 10.597656 68.527344 10.777344 L 68.886719 18.339844 L 70.855469 11.394531 C 71.515625 11.59375 72.210938 11.804688 72.9375 12.066406 C 73.460938 13.046875 74.980469 18.726562 74.441406 20.652344 C 75.683594 19.097656 80.878906 13.558594 80.878906 13.558594 C 81.195312 13.882812 81.683594 14.320312 82.292969 14.863281 L 75.84375 25.140625 L 83.886719 16.296875 C 84.386719 16.734375 84.925781 17.230469 85.511719 17.769531 L 80.535156 25.738281 L 86.875 19.058594 C 87.890625 20.027344 89.007812 21.128906 90.214844 22.375 C 84.847656 31.394531 84.847656 31.394531 84.847656 31.394531 C 94.375 26.484375 94.375 26.484375 94.375 26.484375 C 94.375 26.484375 94.894531 27.148438 95.640625 28.292969 L 87.917969 33.734375 L 96.703125 30 C 97.390625 31.160156 98.132812 32.550781 98.816406 34.097656 L 93.167969 38.5625 L 99.566406 35.941406 C 99.867188 36.75 100.132812 37.582031 100.351562 38.425781 L 93.515625 43.511719 L 101.367188 44.339844 L 101.355469 44.523438 L 94.777344 45.710938 L 101.304688 46.023438 L 101.308594 46.730469 L 95.894531 48.09375 L 101.289062 48.167969 C 101.257812 49.039062 101.171875 50.136719 101 51.65625 C 95.078125 54.652344 95.078125 54.652344 95.078125 54.652344 C 99.734375 57.269531 99.734375 57.269531 99.734375 57.269531 C 99.601562 57.476562 99.4375 57.730469 99.265625 58.054688 L 92.453125 56.296875 L 98.609375 59.382812 C 97.257812 62.421875 95.664062 68.035156 96.84375 75.589844 C 87.941406 67.203125 94.75 56.6875 89.28125 47.351562 Z M 27.734375 113.742188 C 30.503906 111.421875 44.644531 97.65625 65.050781 98.269531 C 75.246094 98.578125 82.214844 102.242188 90.925781 105.316406 C 102.613281 109.4375 117.148438 111.839844 127.625 103.46875 C 124.808594 100.800781 122 96.390625 118.886719 94.382812 C 117.863281 93.730469 115.988281 93.941406 114.664062 93.902344 C 114.796875 93.222656 114.832031 92.769531 114.695312 92.414062 C 113.867188 90.921875 109.320312 86.234375 105.589844 84.027344 C 104.878906 83.8125 102.332031 83.257812 98.898438 83.113281 C 98.539062 82.398438 98.320312 81.265625 97.722656 80.683594 C 97.0625 80.050781 93.632812 76.808594 89.46875 76.085938 C 88.457031 77.105469 85.851562 81.871094 65.1875 84.828125 C 50.875 86.878906 31.765625 99.34375 27.722656 113.726562 Z M 41.558594 100.976562 C 48.402344 98.113281 62.335938 90.613281 79.027344 93.722656 C 77.171875 93.96875 73.40625 94.160156 71.859375 94.800781 C 75.839844 95.515625 82.425781 96.839844 86.144531 99.074219 C 85 98.871094 82.257812 98.390625 81.335938 98.398438 C 83.375 99.449219 90.625 102.890625 96.105469 104.257812 C 89.054688 100.484375 89.054688 100.484375 89.054688 100.484375 C 92.625 101.605469 109.796875 108.539062 119.785156 104.199219 C 121.089844 102.460938 120.761719 101.929688 120.878906 101.199219 C 120.15625 100.40625 116.03125 97.316406 113.203125 96.316406 C 111.628906 97.050781 108.816406 101.421875 82.882812 94.699219 C 85.308594 94.464844 95.617188 95.445312 98.800781 94.1875 C 98.675781 94.796875 98.449219 94.972656 97.914062 95.273438 C 98.875 95.421875 106.964844 97.371094 109.714844 92.261719 C 107.195312 89.757812 105.367188 87.808594 104.84375 87.304688 C 103.277344 86.929688 97.585938 85.789062 96.746094 85.867188 C 96.011719 86.582031 94.414062 87.875 92.476562 88.628906 C 89.449219 89.804688 74.53125 90.042969 70.859375 89.410156 C 73.734375 89.167969 85.183594 88.273438 88.097656 85.476562 C 88.242188 86.09375 87.785156 86.839844 87.554688 87.128906 C 88.496094 86.632812 92.625 84.421875 94.242188 81.261719 C 92.78125 79.957031 90.957031 78.957031 90.296875 78.570312 C 89.4375 79.320312 85.269531 82.472656 83.277344 83.167969 C 84.820312 82.855469 88.148438 82.21875 89.480469 81.609375 C 87.195312 83.140625 82.527344 85.464844 76.296875 86.484375 C 70.058594 87.496094 62.285156 88.207031 59.257812 89.902344 C 61.871094 89.535156 67.238281 89.226562 69.308594 89.359375 C 66.785156 89.910156 53.277344 92.015625 41.558594 100.976562 Z M 44.875 36.855469 C 44.875 36.855469 50.460938 48.992188 60.183594 57.003906 C 60.882812 59.78125 60.882812 59.78125 60.882812 59.78125 C 62.253906 57.628906 62.253906 57.628906 62.253906 57.628906 C 64.210938 58.464844 76.621094 64.003906 86.253906 62.414062 C 86.546875 65.15625 85.339844 68.824219 86.863281 70.582031 C 87.476562 71.304688 88.429688 72.097656 89.703125 73.027344 C 86.679688 78.703125 74.265625 81.269531 68.257812 81.558594 C 69.164062 80.132812 71.738281 76.554688 71.550781 72.375 C 71.480469 70.796875 70.734375 65.800781 68.796875 65.691406 C 66.597656 65.558594 64.785156 72.035156 67.871094 74.421875 C 59.128906 80.390625 59.128906 80.390625 59.128906 80.390625 C 58.3125 80.042969 57.367188 79.136719 57.019531 78.425781 C 55.882812 82.292969 55.855469 82.285156 55.855469 82.285156 C 50.457031 85.785156 40.117188 92.238281 33.015625 99.480469 C 33.863281 93.160156 39.066406 74.027344 42.507812 68.679688 C 49.046875 66.199219 49.046875 66.199219 49.046875 66.199219 C 49.046875 66.199219 49.089844 70.667969 49.507812 72.191406 C 49.859375 69.933594 50.890625 66.800781 51.167969 65.875 C 58.832031 63.011719 58.832031 63.011719 58.832031 63.011719 C 52.152344 61.671875 52.152344 61.671875 52.152344 61.671875 C 52.359375 57.136719 52.359375 57.136719 52.359375 57.136719 C 51.21875 60.902344 51.21875 60.902344 51.21875 60.902344 C 50.78125 59.167969 50.78125 59.167969 50.78125 59.167969 C 50.1875 61.945312 50.1875 61.945312 50.1875 61.945312 C 44.894531 60.488281 44.894531 60.488281 44.894531 60.488281 C 42.597656 66.660156 42.597656 66.660156 42.597656 66.660156 C 41.578125 67.808594 37.3125 71.882812 35.246094 74.402344 C 35.148438 69.917969 33.417969 55.570312 44.847656 36.847656 Z M 47.25 68.914062 L 45 70.125 C 45 70.125 41.027344 82.953125 39.78125 90.117188 C 55.246094 78.640625 55.246094 78.640625 55.246094 78.640625 C 55.347656 76.882812 55.871094 72.757812 56.234375 71.367188 C 56.386719 72.4375 56.375 75.042969 57.089844 76.339844 C 57.152344 75.566406 57.300781 74.546875 57.378906 74.292969 C 57.484375 74.890625 57.90625 76.214844 58.320312 76.828125 C 64.664062 73.007812 64.664062 73.007812 64.664062 73.007812 C 58.445312 74.949219 58.445312 74.949219 58.445312 74.949219 C 64.421875 71.765625 64.421875 71.765625 64.421875 71.765625 C 64.039062 68.320312 67.109375 61.144531 70.960938 64.671875 C 71.804688 65.445312 72.582031 66.71875 72.960938 68.75 C 81.078125 66.285156 81.078125 66.285156 81.078125 66.285156 L 73.125 69.925781 C 73.164062 70.3125 73.179688 70.734375 73.191406 71.171875 L 82.09375 68.480469 L 73.121094 73.269531 C 73.03125 74.421875 72.851562 75.722656 72.5625 77.152344 C 75.746094 76.179688 77.421875 76.050781 83.050781 73.066406 C 81.9375 74.519531 78.523438 77.351562 73.914062 78.914062 C 78.273438 78.082031 83.945312 76.335938 87.386719 73.410156 C 86.84375 72.972656 86.128906 72.292969 85.515625 71.519531 C 84.472656 74.734375 84.21875 68.53125 84.222656 67.667969 C 84.214844 66.355469 83.835938 65.230469 81.222656 64.945312 C 78.339844 64.636719 70.765625 64.121094 62.671875 60.191406 C 61.410156 62.132812 61.410156 62.132812 61.410156 62.132812 C 65.097656 63.144531 65.097656 63.144531 65.097656 63.144531 C 53.054688 67.105469 53.054688 67.105469 53.054688 67.105469 C 49.109375 78.878906 49.109375 78.878906 49.109375 78.878906 C 47.230469 68.878906 47.230469 68.878906 47.230469 68.878906 Z M 43.746094 46.015625 C 43.746094 46.015625 38.148438 56.417969 38.777344 66.328125 C 41.652344 63.519531 41.652344 63.519531 41.652344 63.519531 C 42.945312 56.515625 42.945312 56.515625 42.945312 56.515625 C 44.195312 57.179688 46.074219 58.914062 49.277344 59.347656 C 49.992188 58.066406 50.804688 53.8125 51.03125 52.914062 C 51.433594 53.671875 51.566406 54.472656 51.585938 55.402344 C 52.71875 52.746094 52.71875 52.746094 52.71875 52.746094 C 51.734375 52.015625 48.800781 47.699219 47.503906 45.605469 C 46.773438 46.742188 42.753906 52.058594 41.699219 55.890625 C 42.136719 52.203125 42.4375 49.785156 43.761719 46.019531 Z M 53.582031 53.742188 C 53.582031 53.742188 53.4375 57.085938 53.808594 59.707031 C 59.140625 61.363281 59.140625 61.363281 59.140625 61.363281 C 58.21875 58.183594 58.195312 58.019531 58.195312 58.019531 C 56.777344 56.828125 55.746094 55.851562 53.582031 53.742188 Z M 75.175781 74.261719 L 79.101562 71.773438 L 83.386719 70.429688 C 75.175781 74.261719 75.175781 74.261719 75.175781 74.261719 Z M 54.007812 38.875 C 54.007812 38.875 56.796875 46.238281 61.464844 48.957031 C 58.382812 45.460938 56.410156 42.484375 54.007812 38.875 Z M 88.335938 62.984375 C 88.339844 72.253906 94.128906 78.300781 102.550781 82.15625 C 101.191406 79.613281 98.207031 74.703125 98.730469 66.542969 C 98.921875 67.664062 100.21875 72.3125 101.660156 73.914062 C 100.582031 70.300781 98.40625 61.714844 103.570312 56.886719 C 102.167969 55.972656 99.769531 54.773438 99.769531 54.773438 C 103.398438 54.082031 103.398438 54.082031 103.398438 54.082031 C 103.542969 51.847656 103.9375 45.246094 103.527344 42.328125 C 100.699219 41.660156 100.722656 41.722656 100.722656 41.722656 C 104.320312 39.566406 104.320312 39.566406 104.320312 39.566406 C 103.390625 35.078125 99.773438 26.933594 95.863281 22.652344 C 90.636719 26.207031 90.636719 26.207031 90.636719 26.207031 C 93.9375 21.984375 93.9375 21.984375 93.9375 21.984375 C 91.855469 19.324219 85.710938 12.824219 80.335938 9.269531 C 76.976562 11.441406 76.976562 11.441406 76.976562 11.441406 C 76.644531 8.730469 76.644531 8.730469 76.644531 8.730469 C 73.867188 7.707031 64.992188 5.5 56.429688 6.402344 C 56.488281 10.675781 56.582031 10.703125 56.582031 10.703125 C 52.273438 6.792969 52.273438 6.792969 52.273438 6.792969 C 48.695312 7.457031 40.132812 11.546875 28.105469 17.875 C 32.246094 17.871094 39.050781 18.371094 43.78125 21.832031 C 40.574219 21.929688 40.574219 21.929688 40.574219 21.929688 C 46.144531 24.894531 49.96875 26.554688 56.472656 33.234375 C 53.429688 34.320312 50.597656 36.085938 48.183594 38.644531 C 52.257812 52.5625 68.785156 61.359375 86.199219 60.925781 C 86.777344 60.914062 87.292969 61.113281 87.714844 61.527344 C 88.136719 61.941406 88.34375 62.4375 88.339844 63.027344 Z M 52.410156 39.257812 C 52.410156 39.257812 57.820312 53.753906 70.828125 54.539062 C 67.105469 53.3125 64.785156 52.714844 62.359375 49.703125 C 64.269531 50.570312 77.121094 57.160156 83.519531 50.671875 C 74.050781 54.054688 61.171875 50.929688 56.964844 39.351562 C 60.230469 46.722656 69.941406 53.433594 81.144531 49.925781 C 86.378906 48.292969 78.386719 40.976562 76.335938 39.59375 C 68.855469 34.578125 59.300781 34.289062 52.414062 39.246094 Z M 52.410156 39.257812 " fill-opacity="1" fill-rule="evenodd"/></g></g></g></g><g fill="#000000" fill-opacity="1"><g transform="translate(6.168727, 129.729237)"><g><path d="M 7.203125 0.171875 C 5.003906 0.171875 3.039062 0.0390625 1.3125 -0.21875 L 1.3125 -3.515625 C 3.300781 -3.359375 4.789062 -3.28125 5.78125 -3.28125 C 6.445312 -3.28125 6.945312 -3.296875 7.28125 -3.328125 C 7.613281 -3.367188 7.847656 -3.441406 7.984375 -3.546875 C 8.097656 -3.628906 8.171875 -3.742188 8.203125 -3.890625 C 8.234375 -4.035156 8.25 -4.25 8.25 -4.53125 C 8.25 -4.851562 8.210938 -5.082031 8.140625 -5.21875 C 8.078125 -5.363281 7.929688 -5.46875 7.703125 -5.53125 C 7.484375 -5.601562 7.101562 -5.675781 6.5625 -5.75 L 3.828125 -6.09375 C 2.671875 -6.21875 1.890625 -6.664062 1.484375 -7.4375 C 1.078125 -8.21875 0.875 -9.34375 0.875 -10.8125 C 0.875 -12.101562 1.125 -13.09375 1.625 -13.78125 C 2.132812 -14.476562 2.816406 -14.941406 3.671875 -15.171875 C 4.523438 -15.398438 5.59375 -15.515625 6.875 -15.515625 C 8.726562 -15.515625 10.457031 -15.359375 12.0625 -15.046875 L 12.0625 -11.796875 C 10.488281 -11.972656 9.023438 -12.0625 7.671875 -12.0625 C 6.703125 -12.0625 6.09375 -11.992188 5.84375 -11.859375 C 5.695312 -11.773438 5.597656 -11.664062 5.546875 -11.53125 C 5.492188 -11.40625 5.46875 -11.226562 5.46875 -11 C 5.46875 -10.664062 5.488281 -10.429688 5.53125 -10.296875 C 5.570312 -10.160156 5.675781 -10.0625 5.84375 -10 C 6.019531 -9.945312 6.316406 -9.890625 6.734375 -9.828125 L 9.515625 -9.5 C 10.203125 -9.40625 10.757812 -9.253906 11.1875 -9.046875 C 11.625 -8.835938 11.988281 -8.472656 12.28125 -7.953125 C 12.65625 -7.316406 12.84375 -6.304688 12.84375 -4.921875 C 12.84375 -3.453125 12.609375 -2.347656 12.140625 -1.609375 C 11.671875 -0.878906 11.039062 -0.398438 10.25 -0.171875 C 9.46875 0.0546875 8.453125 0.171875 7.203125 0.171875 Z M 7.203125 0.171875 "/></g></g></g><g fill="#000000" fill-opacity="1"><g transform="translate(25.627888, 129.729237)"><g><path d="M 1.375 -15.34375 L 8.984375 -15.34375 C 10.328125 -15.34375 11.34375 -15.148438 12.03125 -14.765625 C 12.71875 -14.378906 13.175781 -13.8125 13.40625 -13.0625 C 13.632812 -12.320312 13.75 -11.320312 13.75 -10.0625 C 13.75 -8.863281 13.640625 -7.894531 13.421875 -7.15625 C 13.210938 -6.425781 12.757812 -5.847656 12.0625 -5.421875 C 11.375 -5.003906 10.347656 -4.796875 8.984375 -4.796875 L 5.953125 -4.796875 L 5.953125 0 L 1.375 0 Z M 7.171875 -8.1875 C 7.796875 -8.1875 8.238281 -8.222656 8.5 -8.296875 C 8.757812 -8.378906 8.929688 -8.539062 9.015625 -8.78125 C 9.097656 -9.03125 9.140625 -9.457031 9.140625 -10.0625 C 9.140625 -10.664062 9.097656 -11.085938 9.015625 -11.328125 C 8.929688 -11.578125 8.765625 -11.738281 8.515625 -11.8125 C 8.265625 -11.882812 7.816406 -11.921875 7.171875 -11.921875 L 5.953125 -11.921875 L 5.953125 -8.1875 Z M 7.171875 -8.1875 "/></g></g></g><g fill="#000000" fill-opacity="1"><g transform="translate(45.733434, 129.729237)"><g><path d="M 10.875 0 L 10.171875 -2.59375 L 5.21875 -2.59375 L 4.53125 0 L 0.015625 0 L 4.59375 -15.34375 L 10.921875 -15.34375 L 15.5 0 Z M 7.765625 -11.484375 L 7.578125 -11.484375 L 6.109375 -5.953125 L 9.28125 -5.953125 Z M 7.765625 -11.484375 "/></g></g></g><g fill="#000000" fill-opacity="1"><g transform="translate(66.998002, 129.729237)"><g><path d="M 9.5625 0 L 7.796875 -5.234375 L 5.953125 -5.234375 L 5.953125 0 L 1.375 0 L 1.375 -15.34375 L 9.125 -15.34375 C 10.5 -15.34375 11.535156 -15.148438 12.234375 -14.765625 C 12.929688 -14.390625 13.394531 -13.847656 13.625 -13.140625 C 13.863281 -12.429688 13.984375 -11.476562 13.984375 -10.28125 C 13.984375 -9.144531 13.851562 -8.207031 13.59375 -7.46875 C 13.34375 -6.726562 12.835938 -6.171875 12.078125 -5.796875 L 14.3125 0 Z M 7.40625 -8.515625 C 8.039062 -8.515625 8.488281 -8.550781 8.75 -8.625 C 9.007812 -8.695312 9.179688 -8.84375 9.265625 -9.0625 C 9.347656 -9.289062 9.390625 -9.675781 9.390625 -10.21875 C 9.390625 -10.757812 9.347656 -11.140625 9.265625 -11.359375 C 9.191406 -11.578125 9.023438 -11.722656 8.765625 -11.796875 C 8.515625 -11.878906 8.066406 -11.921875 7.421875 -11.921875 L 5.953125 -11.921875 L 5.953125 -8.515625 Z M 7.40625 -8.515625 "/></g></g></g><g fill="#000000" fill-opacity="1"><g transform="translate(87.749922, 129.729237)"><g><path d="M 4.296875 0 L 4.296875 -11.703125 L 0.3125 -11.703125 L 0.3125 -15.34375 L 12.90625 -15.34375 L 12.90625 -11.703125 L 8.890625 -11.703125 L 8.890625 0 Z M 4.296875 0 "/></g></g></g><g fill="#000000" fill-opacity="1"><g transform="translate(106.718732, 129.729237)"><g><path d="M 10.875 0 L 10.171875 -2.59375 L 5.21875 -2.59375 L 4.53125 0 L 0.015625 0 L 4.59375 -15.34375 L 10.921875 -15.34375 L 15.5 0 Z M 7.765625 -11.484375 L 7.578125 -11.484375 L 6.109375 -5.953125 L 9.28125 -5.953125 Z M 7.765625 -11.484375 "/></g></g></g><g fill="#000000" fill-opacity="1"><g transform="translate(127.983295, 129.729237)"><g><path d="M 10.234375 0 L 5.84375 -7.921875 L 5.734375 -7.921875 L 5.734375 0 L 1.34375 0 L 1.34375 -15.34375 L 6.046875 -15.34375 L 9.96875 -8.46875 L 10.09375 -8.46875 L 10.09375 -15.34375 L 14.5 -15.34375 L 14.5 0 Z M 10.234375 0 "/></g></g></g><g fill="#000000" fill-opacity="1"><g transform="translate(58.68502, 140.025639)"><g><path d="M 1.34375 -0.921875 C 0.664062 -1.585938 0.328125 -2.425781 0.328125 -3.4375 C 0.328125 -4.457031 0.664062 -5.296875 1.34375 -5.953125 C 2.03125 -6.609375 2.863281 -6.9375 3.84375 -6.9375 C 4.601562 -6.9375 5.273438 -6.734375 5.859375 -6.328125 C 6.453125 -5.929688 6.867188 -5.375 7.109375 -4.65625 L 5.125 -4.65625 C 4.863281 -5.15625 4.445312 -5.40625 3.875 -5.40625 C 3.300781 -5.40625 2.847656 -5.226562 2.515625 -4.875 C 2.191406 -4.519531 2.03125 -4.039062 2.03125 -3.4375 C 2.03125 -2.84375 2.191406 -2.363281 2.515625 -2 C 2.847656 -1.644531 3.289062 -1.46875 3.84375 -1.46875 C 4.238281 -1.46875 4.5625 -1.566406 4.8125 -1.765625 C 5.0625 -1.960938 5.226562 -2.226562 5.3125 -2.5625 L 3.390625 -2.5625 L 3.390625 -3.828125 L 7.109375 -3.828125 L 7.109375 -2.5625 C 6.984375 -1.9375 6.640625 -1.351562 6.078125 -0.8125 C 5.816406 -0.550781 5.488281 -0.335938 5.09375 -0.171875 C 4.695312 -0.015625 4.28125 0.0625 3.84375 0.0625 C 2.863281 0.0625 2.03125 -0.265625 1.34375 -0.921875 Z M 1.34375 -0.921875 "/></g></g></g><g fill="#000000" fill-opacity="1"><g transform="translate(68.638862, 140.025639)"><g><path d="M 4.1875 0 L 2.515625 0 L 2.515625 -2.203125 L 0.140625 -6.84375 L 2.03125 -6.84375 L 3.359375 -3.75 L 4.65625 -6.84375 L 6.546875 -6.84375 L 4.1875 -2.203125 Z M 4.1875 0 "/></g></g></g><g fill="#000000" fill-opacity="1"><g transform="translate(77.842864, 140.025639)"><g><path d="M 8.484375 -6.84375 L 8.484375 0 L 6.8125 0 L 6.8125 -3.859375 L 5.21875 0 L 3.984375 0 L 2.40625 -3.859375 L 2.40625 0 L 0.734375 0 L 0.734375 -6.84375 L 2.640625 -6.84375 L 4.609375 -2.125 L 6.578125 -6.84375 Z M 8.484375 -6.84375 "/></g></g></g></svg>